<?xml version="1.0" encoding="UTF-8" standalone="no"?>
<svg
   xmlns:dc="http://purl.org/dc/elements/1.1/"
   xmlns:cc="http://creativecommons.org/ns#"
   xmlns:rdf="http://www.w3.org/1999/02/22-rdf-syntax-ns#"
   xmlns:svg="http://www.w3.org/2000/svg"
   xmlns="http://www.w3.org/2000/svg"
   xmlns:sodipodi="http://sodipodi.sourceforge.net/DTD/sodipodi-0.dtd"
   xmlns:inkscape="http://www.inkscape.org/namespaces/inkscape"
   sodipodi:docname="USB-MICRO-B-BOTTOM-MOLEX.svg"
   inkscape:version="0.91 r13725"
   version="1.1"
   id="svg2"
   width="10cm"
   height="10cm">
  <metadata
     id="metadata15">
    <rdf:RDF>
      <cc:Work
         rdf:about="">
        <dc:format>image/svg+xml</dc:format>
        <dc:type
           rdf:resource="http://purl.org/dc/dcmitype/StillImage" />
      </cc:Work>
    </rdf:RDF>
  </metadata>
  <defs
     id="defs13" />
  <sodipodi:namedview
     inkscape:current-layer="layer8"
     inkscape:window-maximized="0"
     inkscape:window-y="0"
     inkscape:window-x="0"
     inkscape:cy="-0.59756668"
     inkscape:cx="0.70583346"
     inkscape:zoom="40.822111"
     showgrid="false"
     id="namedview11"
     inkscape:window-height="1080"
     inkscape:window-width="1920"
     inkscape:pageshadow="2"
     inkscape:pageopacity="0"
     guidetolerance="10"
     gridtolerance="10"
     objecttolerance="10"
     borderopacity="1"
     bordercolor="#666666"
     pagecolor="#ffffff" />
  <g
     inkscape:groupmode="layer"
     id="layer8"
     inkscape:label="USB"
     style="display:inline">
    <g
       id="g4141"
       transform="matrix(0,-1,1,0,-351.81792,354.33171)">
      <path
         sodipodi:nodetypes="ccccc"
         inkscape:connector-curvature="0"
         id="path12762"
         d="m -3.9572079,351.84154 -0.02863,4.96872 7.971757,-0.0177 0,-4.96054 z"
         style="opacity:0.95999995;fill:#b9bec2;fill-opacity:1;fill-rule:evenodd;stroke:#616364;stroke-width:0.02816106;stroke-linecap:butt;stroke-linejoin:miter;stroke-miterlimit:4;stroke-dasharray:none;stroke-opacity:1" />
      <g
         transform="matrix(0.28161062,0,0,0.28161062,-42.124318,351.84154)"
         id="g12768">
        <path
           style="fill:#545556;fill-opacity:1;fill-rule:evenodd;stroke:none;stroke-width:1px;stroke-linecap:butt;stroke-linejoin:miter;stroke-opacity:1"
           d="m 136.41732,17.716535 0,-0.885826 4.42914,0 0,-2.657481 2.36047,0 0.29701,2.657481 0.88582,0 0,0.885826 -7.97244,0 z"
           id="path12764"
           inkscape:connector-curvature="0" />
        <path
           style="fill:#545556;fill-opacity:1;fill-rule:evenodd;stroke:none;stroke-width:1px;stroke-linecap:butt;stroke-linejoin:miter;stroke-opacity:1"
           d="m 139.75491,7.5803475 2.15164,-0.016942 -0.18274,-3.1427489 0.41993,-0.3182622 -4e-5,-2.0620948 -0.30981,-0.2855882 -1.8733,0.016942 -0.37514,0.2347621 0,2.0838712 0.37514,0.338847 z"
           id="path12766"
           inkscape:connector-curvature="0"
           sodipodi:nodetypes="ccccccccccc" />
      </g>
      <g
         transform="matrix(-0.28161062,0,0,0.28161062,42.189842,351.80106)"
         id="g12772">
        <path
           inkscape:connector-curvature="0"
           id="path12774"
           d="m 136.41732,17.716535 0,-0.885826 4.42914,0 0,-2.657481 2.36047,0 0.29701,2.657481 0.88582,0 0,0.885826 -7.97244,0 z"
           style="fill:#545556;fill-opacity:1;fill-rule:evenodd;stroke:none;stroke-width:1px;stroke-linecap:butt;stroke-linejoin:miter;stroke-opacity:1" />
        <path
           sodipodi:nodetypes="ccccccccccc"
           inkscape:connector-curvature="0"
           id="path12776"
           d="m 139.75491,7.5803475 2.15164,-0.016942 -0.18274,-3.1427489 0.41993,-0.3182622 -4e-5,-2.0620948 -0.30981,-0.2855882 -1.8733,0.016942 -0.37514,0.2347621 0,2.0838712 0.37514,0.338847 z"
           style="fill:#545556;fill-opacity:1;fill-rule:evenodd;stroke:none;stroke-width:1px;stroke-linecap:butt;stroke-linejoin:miter;stroke-opacity:1" />
      </g>
    </g>
  </g>
  <rect
     style="opacity:0.95;fill:#ff0000;fill-opacity:1;fill-rule:nonzero;stroke:none;stroke-width:3.5;stroke-linecap:round;stroke-linejoin:bevel;stroke-miterlimit:4;stroke-dasharray:none;stroke-opacity:1"
     id="origin"
     width="1"
     height="1"
     x="0"
     y="354.33072" />
</svg>
