<?xml version="1.0" encoding="UTF-8" standalone="no"?>
<svg
   xmlns:dc="http://purl.org/dc/elements/1.1/"
   xmlns:cc="http://creativecommons.org/ns#"
   xmlns:rdf="http://www.w3.org/1999/02/22-rdf-syntax-ns#"
   xmlns:svg="http://www.w3.org/2000/svg"
   xmlns="http://www.w3.org/2000/svg"
   xmlns:sodipodi="http://sodipodi.sourceforge.net/DTD/sodipodi-0.dtd"
   xmlns:inkscape="http://www.inkscape.org/namespaces/inkscape"
   sodipodi:docname="ECS_ECS-.327-12.5-34B-TR.svg"
   inkscape:version="0.91 r13725"
   version="1.1"
   id="svg2"
   width="10cm"
   height="10cm">
  <metadata
     id="metadata15">
    <rdf:RDF>
      <cc:Work
         rdf:about="">
        <dc:format>image/svg+xml</dc:format>
        <dc:type
           rdf:resource="http://purl.org/dc/dcmitype/StillImage" />
        <dc:title></dc:title>
      </cc:Work>
    </rdf:RDF>
  </metadata>
  <defs
     id="defs13" />
  <sodipodi:namedview
     inkscape:current-layer="svg2"
     inkscape:window-maximized="0"
     inkscape:window-y="0"
     inkscape:window-x="0"
     inkscape:cy="-0.38164996"
     inkscape:cx="0.15135864"
     inkscape:zoom="181.01934"
     showgrid="false"
     id="namedview11"
     inkscape:window-height="1026"
     inkscape:window-width="1920"
     inkscape:pageshadow="2"
     inkscape:pageopacity="0"
     guidetolerance="10"
     gridtolerance="10"
     objecttolerance="10"
     borderopacity="1"
     bordercolor="#666666"
     pagecolor="#ffffff" />
  <g
     id="g11185">
    <path
       inkscape:connector-curvature="0"
       id="rect5409"
       d="M -1.4769531,353.58071 A 0.14999457,0.14999479 0 0 1 -1.6,353.70376 l 0,1.2539 a 0.14999457,0.14999479 0 0 1 0.1230469,0.12305 l 2.9550781,0 a 0.14999457,0.14999479 0 0 1 0.1230469,-0.12305 l 0,-1.25586 A 0.14999457,0.14999479 0 0 1 1.478125,353.58071 l -2.9550781,0 z"
       style="opacity:1;fill:#d6dcdb;fill-opacity:0.96078431;stroke:#99abb0;stroke-width:0.05;stroke-linecap:butt;stroke-linejoin:miter;stroke-miterlimit:4;stroke-dasharray:none;stroke-opacity:0.96078431" />
    <path
       style="opacity:1;fill:#d6dcdb;fill-opacity:0.96078431;stroke:#99abb0;stroke-width:0.01;stroke-linecap:butt;stroke-linejoin:miter;stroke-miterlimit:4;stroke-dasharray:none;stroke-opacity:0.96078431"
       d="m -1.3867824,353.6783 a 0.14084076,0.13047588 0 0 1 -0.1155376,0.10704 l 0,1.09074 a 0.14084076,0.13047588 0 0 1 0.1155376,0.10704 l 2.7747367,0 a 0.14084076,0.13047588 0 0 1 0.1155376,-0.10704 l 0,-1.09244 A 0.14084076,0.13047588 0 0 1 1.3879543,353.6783 l -2.7747367,0 z"
       id="path11183"
       inkscape:connector-curvature="0" />
  </g>
  <rect
     style="opacity:0.95;fill:#ff0000;fill-opacity:1;fill-rule:nonzero;stroke:none;stroke-width:3.5;stroke-linecap:round;stroke-linejoin:bevel;stroke-miterlimit:4;stroke-dasharray:none;stroke-opacity:1"
     id="origin"
     width="1"
     height="1"
     x="0"
     y="354.33072" />
</svg>
